<?xml version="1.0" encoding="utf-8"?>
<!-- Generator: Adobe Illustrator 24.3.0, SVG Export Plug-In . SVG Version: 6.00 Build 0)  -->
<svg version="1.1" id="Vrstva_1" xmlns="http://www.w3.org/2000/svg" xmlns:xlink="http://www.w3.org/1999/xlink" x="0px" y="0px"
	 viewBox="0 0 152.5 25.1" style="enable-background:new 0 0 152.5 25.1;" xml:space="preserve">
<style type="text/css">
	.st0{fill:#FFFFFF;}
	.st1{fill:#FFE900;}
</style>
<path class="st0" d="M22.1,24.8c-2.4,0-4.4,0-6.5,0c-0.3,0-0.7-0.3-0.9-0.6c-1.2-1.6-2.3-3.3-3.4-4.9c-0.4-0.5-0.7-0.7-1.4-0.7
	c-0.9,0-1.8,0-2.8,0c0,2.1,0,4.1,0,6.2c-2.2,0-4.4,0-6.6,0c0-3.7,0-7.4,0-11.3c0.8,0,1.7,0,2.5,0c2.9,0,5.9,0,8.8-0.2
	c2.1-0.1,3.1-1.5,3.1-3.5c-0.1-1.9-1.3-3.2-3.4-3.2c-3.2-0.1-6.4,0-9.6,0c-0.4,0-0.9,0-1.4,0c0-1.8,0-3.5,0-5.1
	c0.1,0,0.2-0.1,0.3-0.1c4.2,0,8.5,0,12.7,0.2c4,0.2,7,2.9,7.9,6.6c0.8,3.6-0.7,7.1-3.9,8.9c-0.2,0.1-0.3,0.2-0.5,0.4
	c0.8,1.2,1.6,2.4,2.5,3.6C20.4,22.2,21.2,23.4,22.1,24.8z"/>
<path class="st1" d="M107,5.2c-1.4,1.2-2.7,2.4-4.1,3.7c-1.8-2.1-4.1-3-6.7-2.6c-1.5,0.2-2.8,0.8-3.8,2.1c-2.2,2.6-2.1,7.1,0.1,9.5
	c2.5,2.7,6.3,2.5,10.5-0.7c1.3,1.2,2.6,2.3,4,3.6c-1.6,2.1-3.7,3.4-6.2,3.9c-4.5,1-8.8,0.5-12.5-2.6c-2.2-1.9-3.5-4.3-3.9-7.2
	c-0.6-4.5,0.7-8.4,4.4-11.3C93.8-0.4,102.9,0,107,5.2z"/>
<path class="st0" d="M53.1,24.7c-2.2,0-4.2,0-6.3,0c0-6,0-12,0-18.1c2,0,3.9,0,5.9,0c0,0.6,0.1,1.1,0.1,1.8c1.8-1.5,3.7-2.2,5.9-2.1
	c4,0.1,6.9,2.5,7.2,6.4c0.2,3.9,0,7.9,0,12c-2,0-4.1,0-6.2,0c0-0.4-0.1-0.8-0.1-1.2c0-2.5,0-5,0-7.5c0-0.5,0-1-0.1-1.6
	c-0.2-1.7-1-2.6-2.3-2.8c-1.7-0.2-3.3,0.6-3.8,2.1c-0.3,0.8-0.4,1.6-0.4,2.4C53,18.9,53.1,21.8,53.1,24.7z"/>
<path class="st0" d="M43.5,17.3c-4.4,0-8.7,0-13.1,0c0.2,2.8,5.1,4.1,8.5,1.4c1.1,1,2.2,2.1,3.5,3.3c-0.7,0.6-1.2,1.1-1.8,1.5
	c-3.7,2.3-9.9,2-13.3-0.8c-3.1-2.5-4-5.8-3.1-9.6c0.9-3.6,3.4-5.8,7-6.6c3.7-0.8,7.3-0.3,10.1,2.7C43.3,11.5,43.9,14.2,43.5,17.3z
	 M37.6,13.9c-0.3-2.3-2.4-3.3-4.2-3.1s-3.1,1.5-3,3.1C32.8,13.9,35.2,13.9,37.6,13.9z"/>
<path class="st1" d="M126.6,24.6c-1.6,0-3.3,0-4.9,0c-0.2,0-0.5-0.4-0.6-0.6c-0.1-0.4,0-0.8-0.2-1.4c-1.1,1.3-2.5,2.1-4.1,2.3
	c-1.9,0.2-3.7,0-5.4-0.9c-2-1.1-2.8-2.9-2.6-5c0.2-2.2,1.4-3.6,3.5-4.1c1.6-0.4,3.3-0.5,4.9-0.7c1-0.1,2.1,0,3.1,0
	c0.2-1.6-0.6-2.7-2.3-2.9c-2.3-0.4-4.3,0.1-6.4,1.3c-0.7-1.3-1.3-2.7-2.1-4.1c1.4-1,2.9-1.4,4.5-1.7c2.8-0.5,5.5-0.6,8.2,0.5
	c2.4,1,4,2.8,4.1,5.3C126.8,16.5,126.6,20.5,126.6,24.6z M118.7,17.2L118.7,17.2c-0.8,0-1.6,0.1-2.4,0.2c-0.8,0.2-1.4,0.7-1.4,1.6
	s0.4,1.5,1.3,1.9c1.3,0.5,3.2,0,3.9-1.1c0.4-0.6,0.5-1.4,0.4-2.2c0-0.2-1-0.3-1.6-0.4C118.8,17.2,118.8,17.2,118.7,17.2z"/>
<path class="st0" d="M77.1,2.6c0,1.5,0,3,0,4.6c1.4,0,2.7,0,4.1,0c0,1.6,0,3.1,0,4.8c-1.3,0-2.7,0-4.1,0c0,2.3,0,4.3,0,6.4
	c0,1.3,1,2,2.3,1.7c0.5-0.1,0.9-0.2,1.5-0.4c0.5,1.4,1,2.8,1.5,4.3c-2.1,1.1-4.2,1.3-6.4,0.9c-3.8-0.7-5.4-2.8-5.4-7.1
	c0-1.9,0-3.8,0-5.8c-0.9,0-1.7-0.1-2.5-0.1c0-1.6,0-3.1,0-4.7c0.8,0,1.6,0,2.5,0c0-1.6,0-3.1,0-4.6C72.9,2.6,74.9,2.6,77.1,2.6z"/>
<path class="st1" d="M136.8,6.6c0.1,0.7,0.1,1.3,0.2,2.2c1.7-1.8,3.7-2.4,6-2.4c0,1.8,0,3.6,0,5.5c-0.5,0-1,0-1.5,0
	c-2.6,0-4.2,1.6-4.2,4.1c0,2.4,0,4.8,0,7.2c0,0.4,0,0.8,0,1.4c-2,0-3.8,0-5.7,0c-0.2,0-0.5-0.5-0.5-0.8c0-5.5,0-11,0-16.5
	c0-0.2,0.4-0.7,0.6-0.7C133.3,6.6,135,6.6,136.8,6.6z"/>
<path class="st1" d="M148.3,17.6c2.2,0.1,3.7,1.7,3.6,3.7c-0.1,2.2-1.8,3.7-3.9,3.6c-2.1-0.1-3.6-1.8-3.5-4.1
	C144.6,18.9,146.1,17.6,148.3,17.6z"/>
</svg>
